# xmcd
#
# Track frame offsets: 
#        150
#        3313
#        10449
#        34117
#        69773
#        82708
#        101650
#        164394
#        216429
#        250456
#
# Disc length: 3351 seconds
#
# Revision: 0
# Processed by: cddbd v1.5.2PL0 Copyright (c) Steve Scherf et al.
# Submitted via: ExactAudioCopy v0.95a5
#
DISCID=780d150a
DTITLE=Jimi Hendix - Live in Scandinavia Vol2 1969-01-09  Stockholm CD
DTITLE=1
DYEAR=1969
DGENRE=Blues
TTITLE0=MC Intro
TTITLE1=Jimi's Intro
TTITLE2=Killing Floor
TTITLE3=Spanish Castle Magic
TTITLE4=Fire
TTITLE5=Hey Joe
TTITLE6=Voodoo Child
TTITLE7=Red House
TTITLE8=The Sunshine of Your Love
TTITLE9=MC Outro
EXTD=
EXTT0=
EXTT1=
EXTT2=
EXTT3=
EXTT4=
EXTT5=
EXTT6=
EXTT7=
EXTT8=
EXTT9=
PLAYORDER=
